<?xml version="1.0" standalone="no"?>
<!DOCTYPE svg PUBLIC "-//W3C//DTD SVG 20010904//EN"
 "http://www.w3.org/TR/2001/REC-SVG-20010904/DTD/svg10.dtd">
<svg version="1.0" xmlns="http://www.w3.org/2000/svg"
 width="452.000000pt" height="246.000000pt" viewBox="0 0 452.000000 246.000000"
 preserveAspectRatio="xMidYMid meet">

<g transform="translate(0.000000,246.000000) scale(0.100000,-0.100000)"
fill="#000000" stroke="none">
<path d="M2008 2239 c93 -18 171 -90 172 -157 0 -41 -29 -88 -69 -110 -38 -21
-124 -32 -139 -18 -11 12 -4 97 12 144 8 23 13 42 10 42 -10 0 -64 -125 -64
-147 0 -13 -3 -23 -6 -23 -4 0 -34 17 -68 39 -181 114 -264 128 -370 60 -57
-36 -56 -45 4 -24 58 20 103 19 131 -4 20 -16 22 -23 13 -38 -9 -14 -26 -19
-80 -20 -120 -4 -193 -39 -320 -149 -32 -29 -70 -61 -84 -73 -14 -11 29 7 95
40 175 88 219 93 495 53 l35 -5 -39 20 c-57 30 -67 42 -64 70 3 23 8 26 44 29
36 3 48 -3 95 -41 30 -24 73 -56 97 -71 23 -14 42 -32 42 -39 0 -7 14 -32 31
-55 l30 -41 35 22 c18 12 34 25 34 28 0 4 -11 14 -25 23 -33 22 -26 32 27 40
53 9 133 52 153 82 l15 24 39 -39 c37 -37 54 -44 170 -78 11 -3 8 -10 -10 -29
l-23 -25 29 -24 c36 -28 49 -21 84 50 12 25 32 50 44 56 12 6 54 36 94 66 62
47 77 54 110 51 32 -3 38 -7 41 -29 3 -29 -8 -41 -64 -69 -47 -23 -35 -24 81
-5 179 30 259 16 425 -71 111 -58 110 -56 -11 48 -125 108 -193 138 -310 140
-72 1 -97 15 -80 46 6 12 23 25 38 28 24 6 92 -5 138 -22 40 -15 -5 24 -58 51
-90 44 -158 32 -301 -55 -114 -68 -112 -68 -119 -24 -6 36 -57 148 -64 141 -2
-2 3 -19 11 -38 18 -46 28 -131 16 -149 -11 -18 -89 -16 -128 4 -59 31 -84 79
-70 141 15 67 77 116 171 134 42 9 42 9 -19 10 -80 1 -154 -35 -197 -95 l-30
-43 -46 51 c-58 65 -108 88 -186 87 l-60 -1 43 -9z"/>
<path d="M190 1392 c-73 -36 -65 -105 20 -165 61 -42 74 -59 65 -86 -15 -47
-94 -45 -117 4 -21 48 -38 23 -19 -28 19 -48 129 -43 171 7 7 10 14 34 14 53
0 36 -16 55 -103 121 -36 27 -41 66 -12 82 30 16 41 13 72 -21 l29 -31 0 35
c0 28 -5 36 -22 41 -38 10 -61 7 -98 -12z"/>
<path d="M632 1403 c-6 -2 -40 -45 -74 -95 -55 -81 -64 -89 -89 -86 -19 3 -25
0 -22 -9 3 -7 9 -13 14 -13 27 0 -28 -85 -62 -95 -37 -12 -19 -25 34 -25 60 0
75 7 51 25 -28 20 4 64 62 86 69 27 74 25 74 -20 0 -49 -8 -71 -27 -71 -8 0
-11 -4 -8 -10 7 -12 125 -14 125 -2 0 4 -9 13 -21 20 -20 13 -20 18 -13 158 6
137 6 144 -12 143 -11 0 -25 -3 -32 -6z m-6 -90 c-3 -21 -6 -45 -6 -53 0 -12
-8 -15 -34 -12 l-35 4 32 49 c18 27 36 49 41 49 5 0 6 -17 2 -37z"/>
<path d="M776 1401 c-3 -5 1 -11 9 -15 22 -8 22 -274 0 -282 -32 -13 -12 -21
61 -27 56 -5 84 -3 111 8 21 9 43 13 51 10 19 -7 11 25 -10 39 -13 8 -29 5
-67 -11 -35 -15 -52 -18 -60 -10 -7 7 -11 59 -11 133 0 111 2 124 20 137 11 8
17 17 13 20 -10 10 -111 8 -117 -2z"/>
<path d="M1198 1400 c-75 -22 -118 -82 -118 -163 0 -120 137 -194 249 -135 66
34 86 66 86 141 0 50 -5 69 -24 96 -41 57 -122 83 -193 61z m109 -36 c33 -20
57 -94 48 -149 -19 -127 -153 -152 -201 -38 -32 74 -6 165 56 195 36 18 58 16
97 -8z"/>
<path d="M1490 1400 c-12 -8 -12 -10 3 -16 15 -5 17 -23 17 -140 0 -110 -3
-136 -15 -140 -34 -13 -11 -24 50 -24 63 0 86 12 45 23 -17 4 -20 14 -20 61
l0 56 30 -6 c17 -4 46 0 70 10 23 9 46 14 51 11 5 -4 9 -33 9 -66 0 -44 -4
-61 -15 -65 -34 -13 -11 -24 50 -24 37 0 65 4 65 10 0 6 -6 10 -14 10 -22 0
-26 24 -26 150 0 107 2 120 20 133 28 20 15 27 -52 27 -55 0 -76 -11 -43 -24
11 -4 15 -21 15 -61 0 -53 -1 -55 -23 -50 -12 4 -43 -3 -70 -15 -26 -12 -52
-18 -57 -15 -6 3 -10 33 -10 65 0 47 4 62 20 73 11 8 17 17 13 20 -10 10 -96
8 -113 -3z"/>
<path d="M2270 1405 c0 -3 9 -14 20 -25 18 -18 20 -33 20 -135 0 -102 -2 -117
-20 -135 -11 -11 -20 -22 -20 -25 0 -9 164 -5 210 6 91 21 145 113 120 204
-13 48 -55 92 -93 99 -37 8 -237 17 -237 11z m217 -45 c46 -27 56 -53 51 -128
-4 -58 -8 -68 -36 -93 -26 -24 -42 -29 -81 -29 -46 0 -49 1 -55 31 -3 17 -6
78 -6 135 l0 104 48 0 c29 0 59 -7 79 -20z"/>
<path d="M2666 1402 c-3 -5 3 -12 14 -15 19 -5 20 -14 20 -141 0 -132 -1 -137
-22 -145 -42 -16 6 -24 112 -19 86 4 105 9 139 31 95 63 92 213 -5 268 -34 20
-248 37 -258 21z m214 -41 c42 -22 64 -77 55 -135 -13 -84 -54 -120 -131 -114
l-39 3 -3 133 -3 132 43 0 c24 0 59 -8 78 -19z"/>
<path d="M3060 1400 c0 -6 7 -13 15 -16 12 -5 15 -30 15 -140 0 -110 -3 -136
-15 -140 -33 -13 -12 -24 44 -24 60 0 89 13 51 23 -19 5 -20 14 -20 140 0 130
1 136 21 142 17 6 19 9 8 16 -20 12 -119 11 -119 -1z"/>
<path d="M3785 1398 c-80 -29 -120 -89 -113 -169 12 -121 135 -184 248 -126
61 30 90 76 90 142 0 66 -29 112 -90 143 -48 24 -87 27 -135 10z m119 -37 c66
-57 56 -210 -16 -247 -63 -32 -125 4 -149 86 -22 73 15 163 73 178 39 10 66 5
92 -17z"/>
<path d="M4065 1401 c-2 -2 4 -11 15 -20 10 -9 44 -80 76 -158 31 -79 59 -141
64 -138 4 2 33 64 64 137 32 73 68 143 81 154 13 12 21 25 18 28 -8 8 -67 8
-87 0 -15 -6 -15 -8 1 -19 20 -15 16 -32 -37 -149 l-26 -60 -28 70 c-43 106
-47 122 -30 138 8 8 14 17 14 20 0 5 -120 3 -125 -3z"/>
<path d="M1892 1388 c12 -10 17 -41 22 -127 6 -126 14 -142 74 -168 52 -22
149 4 171 45 5 9 12 68 16 130 6 88 11 114 24 122 12 7 2 9 -36 10 l-53 0 21
-21 c19 -19 21 -30 17 -115 -3 -75 -8 -99 -24 -121 -27 -36 -89 -43 -125 -14
-22 18 -24 27 -27 129 -4 105 -3 110 19 126 23 15 21 16 -46 16 -57 0 -66 -2
-53 -12z"/>
<path d="M3278 1383 c21 -15 22 -22 22 -139 0 -113 -2 -125 -20 -136 -32 -20
-24 -28 30 -28 52 0 60 5 35 24 -13 9 -15 31 -13 121 l3 109 109 -127 c60 -70
114 -126 120 -124 7 2 12 54 14 147 2 122 5 145 20 156 15 12 9 13 -38 13 -55
1 -55 0 -32 -17 21 -17 23 -24 20 -111 l-3 -94 -95 111 -95 112 -50 -1 c-48 0
-49 -1 -27 -16z"/>
<path d="M2065 685 c33 -9 78 -20 100 -26 l40 -11 -44 -15 c-34 -11 -53 -12
-90 -4 -76 18 -252 41 -311 40 l-55 -1 75 -14 c134 -25 270 -57 270 -63 0 -3
-26 -19 -58 -36 -31 -16 -97 -57 -147 -90 -49 -33 -96 -64 -103 -69 -10 -6
-11 2 -6 36 4 24 11 54 16 67 16 45 0 33 -22 -16 -18 -39 -104 -244 -127 -303
-4 -8 34 24 83 71 98 93 242 205 252 195 3 -4 -6 -43 -20 -86 -14 -44 -24 -80
-22 -80 2 0 30 20 61 44 89 67 214 149 261 170 l42 19 78 -47 c43 -26 120 -79
171 -117 52 -38 95 -68 97 -66 2 1 -8 38 -23 80 -14 43 -23 80 -20 84 11 10
149 -98 245 -191 50 -49 92 -87 92 -84 0 5 -72 179 -130 316 -13 29 -25 51
-27 48 -2 -2 3 -31 11 -64 9 -33 16 -65 16 -71 0 -5 -53 25 -118 67 -65 43
-137 86 -160 96 -23 11 -42 22 -42 26 0 7 147 42 275 64 75 13 77 14 30 15
-64 1 -198 -14 -300 -34 -72 -15 -84 -15 -115 -1 -19 8 -33 16 -30 16 3 1 46
12 95 25 111 28 80 32 -53 6 -88 -17 -106 -18 -163 -6 -35 7 -91 16 -124 19
l-60 6 60 -15z m214 -66 c17 -6 31 -14 31 -18 0 -16 -56 -27 -87 -17 -40 12
-41 19 -5 33 15 6 27 11 28 12 1 1 15 -4 33 -10z m-122 -62 c22 -12 20 -14
-32 -39 l-55 -27 0 29 c0 45 42 62 87 37z m254 3 c16 -9 29 -60 15 -60 -2 0
-28 11 -57 25 -51 23 -52 25 -29 34 33 13 47 13 71 1z"/>
</g>
</svg>
